<svg width="100" height="100" viewBox="0 0 100 100" fill="none" xmlns="http://www.w3.org/2000/svg">
<circle cx="50" cy="50" r="50" fill="white"/>
<path d="M66.8741 35V59.375C66.8741 59.8723 66.6765 60.3492 66.3249 60.7008C65.9733 61.0525 65.4964 61.25 64.9991 61.25C64.5018 61.25 64.0249 61.0525 63.6733 60.7008C63.3216 60.3492 63.1241 59.8723 63.1241 59.375V39.5258L36.3257 66.3266C35.9738 66.6784 35.4966 66.876 34.9991 66.876C34.5015 66.876 34.0244 66.6784 33.6725 66.3266C33.3207 65.9747 33.123 65.4976 33.123 65C33.123 64.5024 33.3207 64.0253 33.6725 63.6734L60.4733 36.875H40.6241C40.1268 36.875 39.6499 36.6775 39.2983 36.3258C38.9466 35.9742 38.7491 35.4973 38.7491 35C38.7491 34.5027 38.9466 34.0258 39.2983 33.6742C39.6499 33.3225 40.1268 33.125 40.6241 33.125H64.9991C65.4964 33.125 65.9733 33.3225 66.3249 33.6742C66.6765 34.0258 66.8741 34.5027 66.8741 35Z" fill="black"/>
</svg>
